<svg width="70" height="70" viewBox="0 0 70 70" fill="none" xmlns="http://www.w3.org/2000/svg">
<path d="M51.666 33.7661C53.0567 33.7835 54.4367 33.5203 55.7246 32.9923C57.0126 32.4642 58.1824 31.6819 59.1651 30.6914L68.9904 20.8035C69.6371 20.1488 70 19.2633 70 18.3402C70 17.4172 69.6371 16.5316 68.9904 15.877C68.6677 15.5495 68.2837 15.2895 67.8606 15.1122C67.4375 14.9348 66.9837 14.8435 66.5254 14.8435C66.0671 14.8435 65.6133 14.9348 65.1902 15.1122C64.7672 15.2895 64.3832 15.5495 64.0604 15.877L54.131 25.73C53.8082 26.0575 53.4243 26.3174 53.0012 26.4948C52.5781 26.6722 52.1243 26.7635 51.666 26.7635C51.2077 26.7635 50.7539 26.6722 50.3308 26.4948C49.9077 26.3174 49.5238 26.0575 49.201 25.73L61.4913 13.3962C61.815 13.0705 62.0718 12.6837 62.2469 12.2581C62.4221 11.8324 62.5123 11.3762 62.5123 10.9155C62.5123 10.4548 62.4221 9.9986 62.2469 9.57296C62.0718 9.14731 61.815 8.76056 61.4913 8.43479C61.1676 8.10902 60.7833 7.8506 60.3603 7.67429C59.9374 7.49798 59.4841 7.40724 59.0263 7.40724C58.5685 7.40724 58.1152 7.49798 57.6922 7.67429C57.2693 7.8506 56.885 8.10902 56.5613 8.43479L44.3057 20.8035C43.6591 20.1488 43.2961 19.2633 43.2961 18.3402C43.2961 17.4172 43.6591 16.5316 44.3057 15.877L54.131 5.989C54.4547 5.66323 54.7115 5.27648 54.8867 4.85084C55.0619 4.42519 55.152 3.96899 55.152 3.50828C55.152 3.04756 55.0619 2.59136 54.8867 2.16572C54.7115 1.74007 54.4547 1.35332 54.131 1.02755C53.8073 0.701777 53.423 0.443359 53 0.267052C52.5771 0.0907445 52.1238 -9.08176e-09 51.666 0C51.2082 9.08176e-09 50.7549 0.0907445 50.332 0.267052C49.909 0.443359 49.5247 0.701777 49.201 1.02755L39.3757 10.9155C37.4252 12.8809 36.3297 15.545 36.3297 18.3228C36.3297 21.1005 37.4252 23.7646 39.3757 25.73L34.8623 30.2372L6.15032 1.23719L5.80313 1.02755C5.62565 0.871718 5.42689 0.74229 5.21292 0.643213L4.58799 0.398634L4.17137 0.119116H3.92834H3.23398C3.02698 0.085806 2.81604 0.085806 2.60905 0.119116C2.39887 0.196103 2.20026 0.301921 2.01884 0.433574L1.46335 0.782972H1.22032L1.01201 1.13237C0.865066 1.31685 0.73711 1.51586 0.630107 1.72635C0.528428 1.9394 0.447054 2.16168 0.387079 2.3902C0.387079 2.3902 0.387079 2.63478 0.387079 2.77454C-0.455411 8.6843 0.0817317 14.7103 1.95592 20.3748C3.83011 26.0393 6.98979 31.1865 11.1845 35.4083L20.3501 44.5975L1.5675 63.465C1.24209 63.7898 0.983808 64.1762 0.807548 64.602C0.631288 65.0278 0.54054 65.4845 0.54054 65.9457C0.54054 66.407 0.631288 66.8636 0.807548 67.2894C0.983808 67.7152 1.24209 68.1016 1.5675 68.4264C1.89191 68.7503 2.27664 69.0065 2.69964 69.1803C3.12264 69.3542 3.57558 69.4424 4.0325 69.4397C4.48942 69.4424 4.94236 69.3542 5.36536 69.1803C5.78836 69.0065 6.17309 68.7503 6.4975 68.4264L27.5715 47.5324L37.3968 37.6445L44.3404 30.6565C46.2777 32.6271 48.9116 33.7452 51.666 33.7661ZM25.1065 40.1252L15.9756 30.9011C10.9708 25.7954 7.83709 19.1308 7.08771 11.9986L30.0365 35.0589L25.1065 40.1252ZM46.7707 42.1168C46.117 41.4542 45.2284 41.0801 44.3006 41.0769C43.3728 41.0736 42.4817 41.4414 41.8234 42.0993C41.165 42.7572 40.7933 43.6514 40.7901 44.5851C40.7868 45.5189 41.1522 46.4156 41.806 47.0782L63.6785 69.0903C64.3417 69.6975 65.2125 70.0231 66.1088 69.9987C66.5657 70.0014 67.0187 69.9133 67.4417 69.7394C67.8647 69.5655 68.2494 69.3093 68.5738 68.9855C68.8992 68.6607 69.1575 68.2742 69.3338 67.8484C69.51 67.4227 69.6008 66.966 69.6008 66.5047C69.6008 66.0435 69.51 65.5868 69.3338 65.161C69.1575 64.7353 68.8992 64.3488 68.5738 64.024L46.7707 42.1168Z" fill="#0062D1"/>
</svg>
