<svg width="74" height="74" viewBox="0 0 74 74" fill="none" xmlns="http://www.w3.org/2000/svg">
<path d="M70.0632 0.0064556C68.7212 0.0990091 67.4833 0.960913 67.0552 2.36657V2.41285C67.0436 2.44755 67.0321 2.48226 67.0089 2.5054L50.5344 45.3114C47.5495 46.5898 43.3789 48.7474 39.7519 51.7901C35.8878 55.0295 32.579 59.3159 32.579 64.6088C32.579 66.8764 33.4178 69.3059 35.3556 71.0875C37.2935 72.8692 40.2494 73.9567 44.287 73.9567H72.5621C73.3026 73.9336 73.9099 73.3725 73.9909 72.6378C74.0719 71.9032 73.6034 71.2264 72.8861 71.0413C72.8861 71.0413 67.6105 69.8207 63.3068 66.4599C61.1549 64.7823 59.2807 62.6131 58.3552 59.8423C57.4296 57.0715 57.3891 53.647 59.1419 49.1986C59.1419 49.1697 59.1419 49.135 59.1419 49.1061L73.7653 4.77296L73.8116 4.68041H73.7653C74.471 2.88718 73.505 0.914636 71.6366 0.284116L71.6829 0.191563C71.6366 0.174208 71.5903 0.208917 71.544 0.191563C71.4978 0.179994 71.4978 0.110579 71.4515 0.0990091L71.4052 0.191563C70.9598 0.0469478 70.5086 -0.0224673 70.0632 0.0064556ZM70.4797 2.92189C70.5549 2.94503 70.6301 2.9566 70.7111 2.96817C70.9945 3.03758 71.1102 3.44251 71.035 3.61604C71.0176 3.66232 71.0003 3.7086 70.9887 3.75487L56.828 46.746L53.5887 45.5428L69.7855 3.38466C69.8029 3.33838 69.8202 3.2921 69.8318 3.24583C69.9012 2.96238 70.3061 2.84669 70.4797 2.92189ZM23.8327 5.97616C19.2397 5.97616 15.1038 8.37098 12.5875 12.2235C11.6966 12.2235 11.1066 12.345 10.3662 12.64L12.4486 15.0001C12.8941 14.8497 13.1601 14.8729 13.6056 14.7225H14.346L14.6699 14.1209C16.4458 10.8641 19.9917 8.79904 23.6939 8.79904C28.4315 8.79904 32.5964 12.0731 33.7822 16.6661L34.0599 17.823H35.5407C38.352 17.823 40.5849 19.7493 41.3253 22.2656H44.4259C43.6854 18.2684 40.4171 15.1563 36.42 14.8613C34.4937 9.5279 29.6057 5.97616 23.8327 5.97616ZM2.82307 8.75276C2.75944 8.76433 2.69581 8.78168 2.63797 8.79904C2.12892 8.90316 1.70665 9.27338 1.53889 9.76507C1.36536 10.2568 1.46948 10.8063 1.80499 11.2054L5.83106 16.1108C4.41384 17.8056 3.4131 19.8418 3.10073 22.1267H6.06245C6.32275 20.7269 6.88964 19.4311 7.68213 18.332L12.0321 23.6076H1.48105C1.03563 23.6076 0.572867 23.7754 0.277853 24.0704C-0.0171616 24.5158 0.000192288 24.9207 0.000192288 25.3661L7.40447 72.7535C7.55487 73.3435 8.1449 73.9567 8.88533 73.9567H37.0216C35.3903 73.2163 34.2103 72.1808 33.3195 70.995H10.2274L3.23956 26.5693H14.4385L20.9173 34.4364C20.79 34.7487 20.7322 35.0842 20.7322 35.4544C20.7322 37.0857 22.0626 38.4162 23.6939 38.4162C25.3251 38.4162 26.6556 37.0857 26.6556 35.4544C26.6556 33.8232 25.3251 32.4927 23.6939 32.4927C23.5377 32.4927 23.3815 32.5101 23.2311 32.539L4.11882 9.35436C4.0899 9.31965 4.06098 9.29073 4.02627 9.2618C3.99735 9.21553 3.96842 9.16925 3.93372 9.12297C3.84695 9.06513 3.75439 9.01885 3.65606 8.98414C3.62713 8.94944 3.59821 8.92051 3.5635 8.89159C3.47673 8.8511 3.3784 8.82218 3.28584 8.79904C3.13544 8.75854 2.97926 8.74119 2.82307 8.75276ZM19.3902 23.6076L21.7503 26.5693H44.1482L40.5849 49.2449C41.7707 48.3541 42.7773 47.6137 43.9631 47.0236L47.3876 25.3661C47.3876 24.9207 47.4049 24.5042 47.1099 24.2092C46.8149 23.7638 46.3521 23.6076 45.9067 23.6076H19.3902ZM51.7376 47.9954L55.8562 49.5226C54.4332 53.861 54.4911 57.6499 55.5323 60.7678C56.6892 64.2328 58.9799 66.8417 61.4557 68.7737C62.8267 69.8439 64.1224 70.2951 65.4818 70.995H58.2626C54.5894 70.5207 52.9408 69.1497 52.1078 67.6631C51.2748 66.1764 51.2748 64.3601 51.645 62.9428C51.7839 62.4743 51.6855 61.971 51.379 61.595C51.0724 61.2132 50.6038 61.0108 50.1179 61.0455C49.4643 61.0918 48.9205 61.5603 48.7759 62.2024C48.2553 64.1923 48.1974 66.7838 49.5163 69.1439C49.8865 69.8149 50.3956 70.4223 50.9972 70.995H50.0716C47.0694 70.995 45.282 70.3066 44.287 69.4679C43.2921 68.6291 42.8698 67.5705 42.8525 66.1822C42.8235 63.3998 44.8192 59.6051 46.6934 57.6673C47.1504 57.2334 47.2777 56.5566 47.0174 55.984C46.7571 55.4113 46.1612 55.0642 45.5365 55.1221C45.1663 55.151 44.8192 55.313 44.5647 55.5848C42.141 58.0896 39.8445 62.1966 39.8908 66.2285C39.9081 67.8077 40.3824 69.4389 41.4179 70.7636C39.5321 70.4223 38.2364 69.7282 37.3455 68.9125C36.0671 67.7325 35.5407 66.1938 35.5407 64.6088C35.5407 60.5712 38.1438 57.0021 41.6493 54.0577C44.9638 51.2753 48.961 49.1813 51.7376 47.9954Z" fill="#0062D1"/>
</svg>
