<svg width="70" height="70" viewBox="0 0 70 70" fill="none" xmlns="http://www.w3.org/2000/svg">
<path d="M17.5 17.5H21.875V26.25H17.5V17.5Z" fill="#0062D1"/>
<path d="M17.5 30.625H21.875V39.375H17.5V30.625Z" fill="#0062D1"/>
<path d="M30.625 17.5H35V26.25H30.625V17.5Z" fill="#0062D1"/>
<path d="M30.625 30.625H35V39.375H30.625V30.625Z" fill="#0062D1"/>
<path d="M17.5 43.75H21.875V52.5H17.5V43.75Z" fill="#0062D1"/>
<path d="M30.625 43.75H35V52.5H30.625V43.75Z" fill="#0062D1"/>
<path d="M65.625 30.625C65.625 29.4647 65.1641 28.3519 64.3436 27.5314C63.5231 26.7109 62.4103 26.25 61.25 26.25H48.125V8.75C48.125 7.58968 47.6641 6.47688 46.8436 5.65641C46.0231 4.83594 44.9103 4.375 43.75 4.375H8.75C7.58968 4.375 6.47688 4.83594 5.65641 5.65641C4.83594 6.47688 4.375 7.58968 4.375 8.75V65.625H65.625V30.625ZM8.75 8.75H43.75V61.25H8.75V8.75ZM48.125 61.25V30.625H61.25V61.25H48.125Z" fill="#0062D1"/>
</svg>
