<svg width="38" height="29" viewBox="0 0 38 29" fill="none" xmlns="http://www.w3.org/2000/svg">
<rect width="38" height="29" rx="8" fill="#FA8F21"/>
<path d="M30.1617 22.7013L26.195 18.8875C27.4748 17.3153 28.1692 15.3737 28.1667 13.375C28.1667 11.595 27.6193 9.85491 26.5937 8.37487C25.5682 6.89483 24.1105 5.74128 22.405 5.06009C20.6996 4.3789 18.823 4.20067 17.0125 4.54794C15.202 4.8952 13.539 5.75237 12.2337 7.01104C10.9284 8.26972 10.0395 9.87336 9.67934 11.6192C9.31921 13.365 9.50404 15.1746 10.2105 16.8192C10.9169 18.4637 12.1132 19.8693 13.648 20.8582C15.1829 21.8472 16.9874 22.375 18.8333 22.375C20.9061 22.3775 22.9195 21.7079 24.55 20.4738L28.505 24.2988C28.6135 24.4042 28.7425 24.4879 28.8847 24.545C29.0268 24.6021 29.1793 24.6315 29.3333 24.6315C29.4873 24.6315 29.6398 24.6021 29.782 24.545C29.9242 24.4879 30.0532 24.4042 30.1617 24.2988C30.271 24.1942 30.3578 24.0697 30.417 23.9327C30.4763 23.7956 30.5068 23.6485 30.5068 23.5C30.5068 23.3515 30.4763 23.2044 30.417 23.0674C30.3578 22.9303 30.271 22.8058 30.1617 22.7013ZM11.8333 13.375C11.8333 12.04 12.2439 10.7349 13.013 9.62491C13.7822 8.51487 14.8755 7.64971 16.1546 7.13882C17.4336 6.62793 18.8411 6.49425 20.199 6.7547C21.5568 7.01515 22.8041 7.65803 23.7831 8.60203C24.7621 9.54604 25.4287 10.7488 25.6988 12.0581C25.9689 13.3675 25.8303 14.7247 25.3005 15.9581C24.7707 17.1915 23.8735 18.2457 22.7223 18.9874C21.5712 19.7291 20.2178 20.125 18.8333 20.125C16.9768 20.125 15.1963 19.4138 13.8836 18.148C12.5708 16.8821 11.8333 15.1652 11.8333 13.375Z" fill="white"/>
</svg>
